<svg version="1.1" id="Layer_1" xmlns="https://www.w3.org/2000/svg" xmlns:xlink="https://www.w3.org/1999/xlink" x="0px" y="0px"
	 width="100%" viewBox="0 0 101 84" enable-background="new 0 0 101 84" xml:space="preserve">
<path fill="#FCFBFB" opacity="1.000000" stroke="none" 
	d="
M1.000000,61.000000 
	C1.000000,41.091583 1.000000,21.183163 1.000000,1.000000 
	C12.686128,1.000000 24.374405,1.000000 36.529762,1.328018 
	C36.995022,2.093395 36.993206,2.530752 36.998093,2.976746 
	C37.004799,2.985383 37.001999,3.006946 36.794342,3.042750 
	C36.308788,3.191742 36.119312,3.389610 35.709770,3.830414 
	C33.669220,5.515185 32.512402,6.892135 29.334806,6.845858 
	C26.539501,6.805149 23.686094,10.754007 20.548225,12.995984 
	C19.513037,13.470712 18.787970,13.890403 17.742258,14.326350 
	C16.991379,15.241558 16.561148,16.140509 15.825407,17.119675 
	C15.349865,18.469795 15.179832,19.739702 14.738041,21.129761 
	C13.982869,21.835752 13.499454,22.421593 13.006893,23.004646 
	C12.997746,23.001858 13.009093,23.019266 12.727333,23.117317 
	C11.168131,24.830338 9.890689,26.445305 8.675148,27.982016 
	C9.749495,29.203550 10.541855,30.104464 11.208926,31.349216 
	C10.049691,33.463520 9.015744,35.233982 7.779463,37.072815 
	C7.311343,37.283131 7.142085,37.500267 7.083602,37.888329 
	C7.097850,37.984066 6.911113,38.035088 6.553461,38.062908 
	C0.435470,42.192974 6.919850,41.452568 7.077673,43.284950 
	C7.735825,45.225449 8.393977,47.165947 8.996762,49.341427 
	C8.941395,49.576408 8.680183,49.982487 8.348316,50.028236 
	C7.044652,51.056557 6.072854,52.039127 4.132117,54.001377 
	C7.134526,54.001377 8.560924,54.001377 9.985996,54.252743 
	C9.986827,54.671669 9.988980,54.839233 9.995599,55.003345 
	C10.000063,54.999893 10.007270,54.990696 9.765450,55.164421 
	C9.292818,55.878212 9.062007,56.418274 8.459078,56.975437 
	C7.125707,57.757763 6.164453,58.522991 5.175066,59.228676 
	C5.146933,59.169128 5.278195,59.180012 4.972442,59.147324 
	C4.363175,59.353390 4.059662,59.592152 3.756150,59.830910 
	C4.392495,60.136692 5.028840,60.442478 5.834095,61.082047 
	C5.051088,62.395542 4.099171,63.375263 3.026174,64.037491 
	C2.270061,62.813332 1.635030,61.906666 1.000000,61.000000 
z"/>
<path fill="#FFFFFF" opacity="1.000000" stroke="none" 
	d="
M69.000000,1.000000 
	C79.949097,1.000000 90.898186,1.000000 102.000000,1.000000 
	C102.000000,21.354002 102.000000,41.708344 101.644150,62.491798 
	C100.638039,62.119553 99.283157,61.083595 99.458450,60.557095 
	C100.253685,58.168552 98.554588,57.020588 97.859940,55.259052 
	C96.188873,51.021481 90.825333,46.966259 96.113144,41.293072 
	C98.737411,38.477554 95.559875,38.012577 93.137886,37.712822 
	C92.608040,36.945923 92.202400,36.482807 91.790649,35.657951 
	C91.781822,34.589645 91.779091,33.883080 92.072601,32.983055 
	C93.740211,30.836571 95.503975,29.318060 93.474510,26.366447 
	C90.744987,22.396690 89.372215,17.395350 86.296013,13.794520 
	C83.919510,11.012715 79.819153,9.703595 76.434860,7.681528 
	C76.384521,7.623321 76.237183,7.578807 76.424896,7.258557 
	C75.636658,6.679488 74.660706,6.420667 73.417404,6.030635 
	C72.456245,5.682725 71.762436,5.466029 70.893646,4.940866 
	C70.145775,3.421600 69.572884,2.210800 69.000000,1.000000 
z"/>
<path fill="#F6F8F6" opacity="1.000000" stroke="none" 
	d="
M36.991386,2.968110 
	C36.993206,2.530752 36.995022,2.093395 36.998421,1.328018 
	C39.370556,1.000000 41.741116,1.000000 44.611584,1.454141 
	C45.407246,5.636199 45.702995,9.364116 46.082268,13.245095 
	C46.439873,13.327008 46.713951,13.255858 47.404266,13.123532 
	C49.220070,13.095138 50.619644,13.127917 52.172318,13.355547 
	C52.877831,13.423698 53.430233,13.297001 54.273624,13.100096 
	C54.383457,12.295017 54.202305,11.560145 53.989471,10.547930 
	C53.638428,9.847120 53.319061,9.423656 53.196522,8.743015 
	C54.179844,8.051175 54.966335,7.616511 56.000328,7.045064 
	C53.565342,5.439006 51.519104,4.089357 48.729404,2.249339 
	C49.438766,3.698520 49.720570,4.274225 49.699692,4.907317 
	C48.911419,4.680127 48.425827,4.395550 47.961166,3.722174 
	C47.988071,2.555583 47.994034,1.777792 48.000000,1.000000 
	C52.356899,1.000000 56.713799,1.000000 61.431732,1.252146 
	C61.522289,1.976844 61.251808,2.449394 60.790215,3.203820 
	C59.757458,4.944756 58.915813,6.403815 58.048759,8.256955 
	C58.982525,9.768850 59.941700,10.886666 60.957615,12.005813 
	C61.014355,12.007143 61.013367,12.120646 61.095390,12.329960 
	C61.358475,12.804971 61.608898,12.954745 62.238396,12.962254 
	C63.288429,12.019049 64.028748,11.102188 64.744751,10.194590 
	C64.720436,10.203852 64.709450,10.254717 64.793083,10.596485 
	C65.951881,11.467530 67.027046,11.996807 68.085495,12.663570 
	C68.068787,12.801058 68.018799,13.073506 68.021027,13.372999 
	C68.374207,14.107042 68.725143,14.541593 69.315979,15.010811 
	C69.555878,15.045481 70.001427,15.236504 70.150192,15.490246 
	C71.789101,16.179991 73.279236,16.615993 74.879265,17.066765 
	C74.989159,17.081533 75.149734,16.928581 75.066055,17.199354 
	C75.034126,17.651796 75.085884,17.833467 75.112122,18.292450 
	C75.355408,18.805498 75.624214,19.041235 75.946762,19.486872 
	C76.158249,19.974693 76.396866,20.117212 76.768280,20.422550 
	C76.900597,21.115864 76.981003,21.510954 77.067932,22.226528 
	C77.669838,23.036724 78.265221,23.526434 78.945236,24.251938 
	C79.079475,24.647209 79.129082,24.806686 79.086945,25.303078 
	C78.947861,26.102631 78.900520,26.565275 78.710670,27.143284 
	C78.755341,27.485226 78.942528,27.711802 79.358292,28.033215 
	C79.885681,28.319513 80.056763,28.591366 79.806137,29.184330 
	C79.291626,30.410522 79.071060,31.395990 78.626343,32.337250 
	C78.402191,32.293045 78.000458,32.075336 77.945984,31.898230 
	C77.605118,31.735497 77.318733,31.749872 76.709175,31.691212 
	C68.868248,27.988836 64.856453,18.873281 55.555939,18.130856 
	C52.155994,17.859451 48.377384,17.363970 45.338455,18.494572 
	C37.121288,21.551687 29.208506,25.426954 21.111628,28.743095 
	C21.048279,28.508518 21.038551,28.022657 21.016979,28.024399 
	C20.995409,28.026138 21.035078,28.046719 21.328453,27.803997 
	C21.726685,26.036842 21.831541,24.512405 22.202934,22.961761 
	C22.666460,22.652437 22.863451,22.369324 23.387730,22.029795 
	C24.126884,21.310160 24.538752,20.646940 25.176750,19.890060 
	C25.733824,19.621962 25.877817,19.348934 26.051395,18.767323 
	C26.354958,18.376072 26.441986,18.194813 26.709332,17.749340 
	C27.334564,17.076382 27.984068,16.226654 28.194145,16.324114 
	C32.263004,18.211781 33.502293,15.704238 34.395565,12.452543 
	C34.458809,12.412078 34.542686,12.287526 34.874985,12.434160 
	C37.615978,12.344333 40.024681,12.107872 42.795254,11.835887 
	C42.795254,11.083723 42.795254,9.800840 42.861732,8.176771 
	C42.942169,6.913416 42.956127,5.991247 42.986740,4.836087 
	C42.681068,4.365738 42.358742,4.128382 41.666630,3.819703 
	C39.861691,3.488290 38.426540,3.228200 36.991386,2.968110 
z"/>
<path fill="#F6F4F2" opacity="1.000000" stroke="none" 
	d="
M93.262085,38.016602 
	C95.559875,38.012577 98.737411,38.477554 96.113144,41.293072 
	C90.825333,46.966259 96.188873,51.021481 97.859940,55.259052 
	C98.554588,57.020588 100.253685,58.168552 99.458450,60.557095 
	C99.283157,61.083595 100.638039,62.119553 101.644150,62.960457 
	C102.000000,70.276573 102.000000,77.553146 102.000000,85.000000 
	C90.646233,85.000000 79.291779,85.000000 67.368347,84.705536 
	C67.182434,83.934998 67.565491,83.458923 68.207047,82.974533 
	C68.630745,82.916763 68.795937,82.867325 69.325699,82.827225 
	C70.077065,81.606697 70.463844,80.376808 70.998825,79.500961 
	C76.522705,81.863762 84.211945,78.994110 86.679268,74.033607 
	C91.482040,70.858604 95.971764,67.825142 98.224770,66.302910 
	C97.584496,64.679535 97.152596,62.851078 96.164459,61.401890 
	C95.700546,60.721512 94.165230,60.771675 93.087936,60.064541 
	C93.160858,56.849617 92.509560,54.695278 89.041481,54.521957 
	C90.057869,52.744686 91.947792,51.341419 91.940643,49.947887 
	C91.928680,47.616444 90.705727,45.291214 90.309883,42.837105 
	C90.773033,41.820793 90.918770,40.930744 91.030624,40.025826 
	C90.996735,40.010960 91.059967,40.053085 91.415588,40.022686 
	C92.136497,39.313122 92.501793,38.633953 92.965637,37.971497 
	C93.064186,37.988205 93.262085,38.016602 93.262085,38.016602 
z"/>
<path fill="#F6F5F3" opacity="1.000000" stroke="none" 
	d="
M1.000000,61.468693 
	C1.635030,61.906666 2.270061,62.813332 3.002624,64.373070 
	C5.064088,66.670692 7.028020,68.315247 9.264294,70.190872 
	C11.341781,71.471481 13.183399,72.463737 14.943157,73.584526 
	C17.326752,75.102638 19.647579,76.719299 21.931423,78.550957 
	C22.532248,78.576271 23.196980,78.344307 23.917192,78.482544 
	C25.342983,79.803070 26.607773,80.993187 28.106117,81.652580 
	C31.001120,82.926605 34.027866,83.901245 37.000000,85.000000 
	C25.088213,85.000000 13.176426,85.000000 1.000000,85.000000 
	C1.000000,77.314484 1.000000,69.625931 1.000000,61.468693 
z"/>
<path fill="#BF2121" opacity="1.000000" stroke="none" 
	d="
M67.948540,82.982849 
	C67.565491,83.458923 67.182434,83.934998 66.899689,84.705536 
	C59.979053,85.000000 52.958103,85.000000 45.345253,84.714943 
	C44.438194,83.888985 44.123047,83.348076 43.852028,82.581551 
	C43.896160,82.355927 43.996387,81.907188 44.274387,81.937172 
	C44.652912,81.359459 44.753433,80.751755 44.886314,79.810738 
	C44.932388,79.031105 44.946106,78.584801 45.425453,78.099861 
	C50.926823,78.362175 55.962570,78.663124 61.083260,79.295319 
	C62.094486,80.355659 63.020767,81.084747 64.291382,81.882629 
	C65.098587,82.022713 65.561447,82.094002 66.202354,82.372772 
	C66.903114,82.714447 67.425827,82.848648 67.948540,82.982849 
z"/>
<path fill="#BE1D1F" opacity="1.000000" stroke="none" 
	d="
M37.375000,85.000000 
	C34.027866,83.901245 31.001120,82.926605 28.106117,81.652580 
	C26.607773,80.993187 25.342983,79.803070 23.966665,78.140961 
	C23.956888,76.969215 23.953119,76.509247 24.311630,76.013748 
	C31.107893,74.335014 37.022842,77.278290 42.981369,78.328964 
	C41.901596,79.092087 41.021442,79.598831 40.090397,80.411758 
	C40.336121,81.477707 40.632736,82.237488 40.700447,83.174644 
	C40.314362,83.901352 40.157181,84.450676 40.000000,85.000000 
	C39.250000,85.000000 38.500000,85.000000 37.375000,85.000000 
z"/>
<path fill="#B25F76" opacity="1.000000" stroke="none" 
	d="
M45.998749,13.092031 
	C45.702995,9.364116 45.407246,5.636199 45.055748,1.454141 
	C45.444447,1.000000 45.888889,1.000000 46.630661,1.355549 
	C47.265400,2.511057 47.602814,3.311015 47.940231,4.110973 
	C48.425827,4.395550 48.911419,4.680127 49.754379,5.275968 
	C49.537430,7.574911 48.181049,9.898827 52.118019,10.288446 
	C52.826595,10.663159 53.423878,10.744217 54.021156,10.825274 
	C54.202305,11.560145 54.383457,12.295017 53.949051,13.030688 
	C52.895401,13.074557 52.457310,13.117628 52.019215,13.160698 
	C50.619644,13.127917 49.220070,13.095138 47.160423,13.063118 
	C46.333145,13.073264 46.165947,13.082648 45.998749,13.092031 
z"/>
<path fill="#F6F4F2" opacity="1.000000" stroke="none" 
	d="
M60.981327,2.921945 
	C61.251808,2.449394 61.522289,1.976844 61.896385,1.252146 
	C64.041664,1.000000 66.083336,1.000000 68.562500,1.000000 
	C69.572884,2.210800 70.145775,3.421600 70.745995,5.238522 
	C67.831673,8.567012 67.233727,3.645756 64.740738,3.807476 
	C63.317577,3.335207 62.149452,3.128576 60.981327,2.921945 
z"/>
<path fill="#C85F5D" opacity="1.000000" stroke="none" 
	d="
M40.141289,80.105576 
	C41.021442,79.598831 41.901596,79.092087 43.188576,78.292572 
	C43.595402,77.999794 44.009933,77.909889 44.249096,77.960022 
	C44.488258,78.010147 44.959827,78.138489 44.959827,78.138489 
	C44.946106,78.584801 44.932388,79.031105 44.656441,79.940140 
	C44.261604,80.904312 44.128994,81.405746 43.996387,81.907188 
	C43.996387,81.907188 43.896160,82.355927 43.643867,82.801064 
	C43.261051,83.830803 43.130524,84.415398 43.000000,85.000000 
	C42.250000,85.000000 41.500000,85.000000 40.375000,85.000000 
	C40.157181,84.450676 40.314362,83.901352 40.960030,83.039810 
	C41.012768,81.853592 40.577026,80.979584 40.141289,80.105576 
z"/>
<path fill="#BB2A2F" opacity="1.000000" stroke="none" 
	d="
M43.333332,85.000000 
	C43.130524,84.415398 43.261051,83.830803 43.599735,83.026688 
	C44.123047,83.348076 44.438194,83.888985 44.876671,84.714943 
	C44.555553,85.000000 44.111111,85.000000 43.333332,85.000000 
z"/>
<path fill="#EDEDEF" opacity="1.000000" stroke="none" 
	d="
M47.961166,3.722174 
	C47.602814,3.311015 47.265400,2.511057 46.963989,1.355549 
	C47.000000,1.000000 47.500000,1.000000 47.750000,1.000000 
	C47.994034,1.777792 47.988071,2.555583 47.961166,3.722174 
z"/>
<path fill="#C51F26" opacity="1.000000" stroke="none" 
	d="
M7.981797,37.004448 
	C9.015744,35.233982 10.049691,33.463520 11.522958,31.427719 
	C13.428289,31.484505 12.998706,35.880123 15.970345,33.003860 
	C15.993589,32.991013 16.037510,32.961128 16.345682,32.947430 
	C17.123901,32.581772 17.593948,32.229809 18.349834,32.056122 
	C19.751022,33.847340 20.866369,35.460285 21.929642,37.415092 
	C20.168652,39.047897 17.244051,41.698769 16.935619,41.423054 
	C13.127386,38.018757 13.855785,42.762646 12.195652,43.343952 
	C14.799287,43.811886 16.992273,44.206017 19.047150,44.918892 
	C18.123550,46.124657 17.338058,47.011677 16.135466,48.369713 
	C18.210970,48.832634 19.661480,49.156158 21.256483,49.511909 
	C20.746885,47.711777 20.375402,46.399536 20.342657,45.070496 
	C21.494839,45.407818 22.308283,45.761944 23.216711,46.313053 
	C23.512119,46.724419 23.681866,46.960827 23.865475,47.588997 
	C23.554768,49.558506 23.199522,51.158283 22.543827,52.848579 
	C21.138016,52.804340 20.032654,52.669590 18.842407,52.208332 
	C18.410130,51.625404 18.062735,51.368977 17.501194,51.242966 
	C16.607275,52.061798 15.927499,52.750210 14.968541,53.690815 
	C13.448375,53.651585 12.207390,53.360157 10.675362,52.890182 
	C9.816273,51.801918 9.248227,50.892200 8.680183,49.982487 
	C8.680183,49.982487 8.941395,49.576408 9.339774,49.174255 
	C11.797851,44.402664 9.335840,41.223785 6.911113,38.035088 
	C6.911113,38.035088 7.097850,37.984066 7.285197,37.827301 
	C7.731442,37.516758 7.901194,37.294727 7.981797,37.004448 
z"/>
<path fill="#C5272C" opacity="1.000000" stroke="none" 
	d="
M42.970085,5.069078 
	C42.956127,5.991247 42.942169,6.913416 42.485825,8.327234 
	C40.526627,9.244418 38.942448,9.516861 37.514854,10.145123 
	C36.421589,10.626255 35.526127,11.556844 34.542686,12.287525 
	C34.542686,12.287526 34.458809,12.412078 34.090897,12.612237 
	C31.955706,13.569595 30.801598,16.781868 28.111357,14.232062 
	C28.030224,14.155164 26.714527,15.380827 25.721859,15.889855 
	C24.988674,15.516086 24.508045,15.251658 23.959528,14.635344 
	C22.880541,13.835952 21.869444,13.388450 20.858347,12.940948 
	C23.686094,10.754007 26.539501,6.805149 29.334806,6.845858 
	C32.512402,6.892135 33.669220,5.515185 35.938438,3.856979 
	C36.778866,3.579517 36.954330,3.340070 37.001999,3.006946 
	C37.001999,3.006946 37.004799,2.985383 36.998093,2.976746 
	C38.426540,3.228200 39.861691,3.488290 41.755409,4.062997 
	C42.466007,4.608102 42.718048,4.838590 42.970085,5.069078 
M38.404701,5.481092 
	C38.404701,5.481092 38.523926,5.408100 38.404701,5.481092 
M36.597031,8.513142 
	C36.597031,8.513142 36.479046,8.584494 36.597031,8.513142 
M33.481163,9.594910 
	C33.481163,9.594910 33.411278,9.479452 33.481163,9.594910 
z"/>
<path fill="#C51F26" opacity="1.000000" stroke="none" 
	d="
M20.548225,12.995984 
	C21.869444,13.388450 22.880541,13.835952 23.931454,14.930037 
	C24.592464,16.710186 25.213663,17.843750 25.834860,18.977314 
	C25.877817,19.348934 25.733824,19.621962 24.854300,19.940409 
	C23.890625,20.751682 23.475533,21.418947 23.060440,22.086210 
	C22.863451,22.369324 22.666460,22.652437 21.949104,22.730015 
	C20.600821,21.777502 19.772902,21.030527 18.944984,20.283550 
	C18.960222,21.519161 18.975462,22.754772 19.096741,24.206181 
	C19.395830,24.696825 19.655588,24.873711 19.998920,24.971592 
	C20.015791,24.990555 20.046032,25.031324 20.129284,25.236073 
	C20.380348,25.696289 20.607809,25.876474 20.923061,26.325264 
	C20.979160,27.128340 21.007120,27.587528 21.035080,28.046719 
	C21.035078,28.046719 20.995409,28.026138 20.677071,28.066833 
	C19.948341,28.807796 19.537949,29.508064 19.037334,30.445557 
	C18.665205,30.860495 18.383297,31.038210 18.055412,30.912876 
	C17.734207,30.318516 17.458981,30.027208 17.183752,29.735901 
	C16.801672,30.810976 16.419590,31.886053 16.037510,32.961128 
	C16.037510,32.961128 15.993589,32.991013 15.721005,32.803886 
	C14.262989,29.512224 11.767589,26.740637 13.009093,23.019266 
	C13.009093,23.019266 12.997746,23.001858 13.333868,22.999870 
	C14.116591,22.335127 14.563194,21.672367 15.009797,21.009609 
	C15.179832,19.739702 15.349865,18.469795 16.139271,17.106438 
	C17.193396,16.112020 17.628149,15.211058 18.062904,14.310094 
	C18.787970,13.890403 19.513037,13.470712 20.548225,12.995984 
z"/>
<path fill="#E3E2DB" opacity="1.000000" stroke="none" 
	d="
M10.966406,53.068733 
	C12.207390,53.360157 13.448375,53.651585 15.153691,54.015926 
	C16.728594,55.992218 17.839163,57.895596 19.009581,60.146645 
	C20.099091,61.625786 21.128752,62.757248 22.103395,64.224915 
	C21.622829,65.354866 21.197281,66.148628 20.428692,66.832108 
	C17.107594,65.685745 14.129538,64.649658 11.169764,63.288582 
	C10.442118,62.008839 9.696188,61.054089 8.937776,59.706902 
	C8.893928,58.529091 8.862562,57.743713 8.831196,56.958336 
	C9.062007,56.418274 9.292818,55.878212 9.811342,55.305408 
	C10.183608,55.323513 10.268161,55.374359 10.352715,55.425205 
	C10.232189,55.285736 10.111663,55.146267 9.991136,55.006798 
	C9.988980,54.839233 9.986827,54.671669 10.200823,54.157562 
	C10.688639,53.629112 10.871783,53.381687 10.966406,53.068733 
z"/>
<path fill="#D01C27" opacity="1.000000" stroke="none" 
	d="
M8.950258,60.099339 
	C9.696188,61.054089 10.442118,62.008839 11.025331,63.641167 
	C10.239062,66.199097 9.615508,68.079445 8.991953,69.959793 
	C7.028020,68.315247 5.064088,66.670692 3.123705,64.690567 
	C4.099171,63.375263 5.051088,62.395542 5.848316,60.806858 
	C5.555150,59.858597 5.416673,59.519306 5.278195,59.180012 
	C5.278195,59.180012 5.146933,59.169128 5.498549,59.233200 
	C6.883530,59.564625 7.916894,59.831982 8.950258,60.099339 
z"/>
<path fill="#F6F5F3" opacity="1.000000" stroke="none" 
	d="
M6.553461,38.062908 
	C9.335840,41.223785 11.797851,44.402664 9.395142,48.939274 
	C8.393977,47.165947 7.735825,45.225449 7.077673,43.284950 
	C6.919850,41.452568 0.435470,42.192974 6.553461,38.062908 
z"/>
<path fill="#CB2126" opacity="1.000000" stroke="none" 
	d="
M12.727333,23.117317 
	C11.767589,26.740637 14.262989,29.512224 15.697760,32.816734 
	C12.998706,35.880123 13.428289,31.484505 11.648246,31.083881 
	C10.541855,30.104464 9.749495,29.203550 8.675148,27.982016 
	C9.890689,26.445305 11.168131,24.830338 12.727333,23.117317 
z"/>
<path fill="#F6F5F3" opacity="1.000000" stroke="none" 
	d="
M10.675362,52.890182 
	C10.871783,53.381687 10.688639,53.629112 10.202147,53.906197 
	C8.560924,54.001377 7.134526,54.001377 4.132117,54.001377 
	C6.072854,52.039127 7.044652,51.056557 8.348316,50.028236 
	C9.248227,50.892200 9.816273,51.801918 10.675362,52.890182 
z"/>
<path fill="#F6F5F3" opacity="1.000000" stroke="none" 
	d="
M8.937776,59.706902 
	C7.916894,59.831982 6.883530,59.564625 5.526683,59.292744 
	C6.164453,58.522991 7.125707,57.757763 8.459078,56.975437 
	C8.862562,57.743713 8.893928,58.529091 8.937776,59.706902 
z"/>
<path fill="#CB2126" opacity="1.000000" stroke="none" 
	d="
M17.742256,14.326350 
	C17.628149,15.211058 17.193396,16.112020 16.444778,17.026222 
	C16.561148,16.140509 16.991379,15.241558 17.742256,14.326350 
z"/>
<path fill="#CB2126" opacity="1.000000" stroke="none" 
	d="
M14.738041,21.129761 
	C14.563194,21.672367 14.116591,22.335127 13.343014,23.002659 
	C13.499454,22.421593 13.982869,21.835752 14.738041,21.129761 
z"/>
<path fill="#F6F5F3" opacity="1.000000" stroke="none" 
	d="
M4.972442,59.147324 
	C5.416673,59.519306 5.555150,59.858597 5.679406,60.473076 
	C5.028840,60.442478 4.392495,60.136692 3.756150,59.830910 
	C4.059662,59.592152 4.363175,59.353390 4.972442,59.147324 
z"/>
<path fill="#EEEAE7" opacity="1.000000" stroke="none" 
	d="
M36.794342,3.042750 
	C36.954330,3.340070 36.778866,3.579517 36.246933,3.698723 
	C36.119312,3.389610 36.308788,3.191742 36.794342,3.042750 
z"/>
<path fill="#F6F5F3" opacity="1.000000" stroke="none" 
	d="
M7.779463,37.072815 
	C7.901194,37.294727 7.731442,37.516758 7.270949,37.731567 
	C7.142085,37.500267 7.311343,37.283131 7.779463,37.072815 
z"/>
<path fill="#CA1B21" opacity="1.000000" stroke="none" 
	d="
M89.992470,42.963371 
	C90.705727,45.291214 91.928680,47.616444 91.940643,49.947887 
	C91.947792,51.341419 90.057869,52.744686 88.739288,54.574615 
	C87.695595,54.458332 86.933296,53.911007 85.867523,53.187225 
	C83.386063,52.980381 81.208069,52.949989 78.851959,52.581131 
	C77.197960,46.831482 79.599586,43.497108 84.890587,43.481750 
	C86.071243,43.478325 87.250816,43.100666 88.430885,42.895306 
	C87.915764,41.651596 87.400642,40.407890 87.042664,38.851204 
	C87.706528,37.555286 88.213264,36.572346 88.719994,35.589405 
	C88.199875,35.382477 87.679749,35.175545 87.159622,34.968613 
	C86.771477,36.228401 86.383324,37.488186 85.723145,38.970512 
	C82.954582,43.213905 81.393173,39.544113 79.539841,38.089851 
	C79.355476,36.302151 79.147263,34.895985 79.228668,33.308952 
	C80.094818,32.446621 80.671349,31.765156 81.461288,31.275640 
	C82.593079,32.829647 83.330902,35.320042 85.332855,32.028866 
	C86.804085,31.976961 87.941040,31.895664 89.368103,31.921970 
	C90.102051,32.459938 90.545906,32.890301 90.990341,33.617950 
	C91.259529,34.616722 91.528145,35.318207 91.796753,36.019691 
	C92.202400,36.482807 92.608040,36.945923 93.137886,37.712822 
	C93.262085,38.016602 93.064186,37.988205 92.654785,38.034134 
	C91.850250,38.737740 91.455109,39.395412 91.059967,40.053085 
	C91.059967,40.053085 90.996735,40.010960 90.752419,40.206356 
	C90.336220,41.255627 90.164345,42.109497 89.992470,42.963371 
z"/>
<path fill="#C32C2D" opacity="1.000000" stroke="none" 
	d="
M64.995773,4.073113 
	C67.233727,3.645756 67.831673,8.567012 70.920975,5.546988 
	C71.762436,5.466029 72.456245,5.682725 73.571701,6.299964 
	C74.741295,6.993274 75.489243,7.286040 76.237183,7.578807 
	C76.237183,7.578807 76.384521,7.623321 76.565247,7.982660 
	C78.593414,10.175570 80.440842,12.009141 81.913406,13.880692 
	C78.319412,12.609355 76.467552,14.202192 75.149734,16.928581 
	C75.149734,16.928581 74.989159,17.081533 74.989304,16.694157 
	C74.207382,11.845919 71.856300,14.697500 70.001427,15.236504 
	C70.001427,15.236504 69.555878,15.045481 69.240517,14.695343 
	C68.623039,13.921306 68.320915,13.497406 68.018799,13.073506 
	C68.018799,13.073506 68.068787,12.801058 67.950668,12.361771 
	C66.791519,11.366561 65.750488,10.810638 64.709450,10.254717 
	C64.709450,10.254717 64.720436,10.203852 64.848969,9.840200 
	C64.983582,7.675404 64.989677,5.874259 64.995773,4.073113 
z"/>
<path fill="#F6F4F2" opacity="1.000000" stroke="none" 
	d="
M82.288269,13.842712 
	C80.440842,12.009141 78.593414,10.175570 76.615585,8.040867 
	C79.819153,9.703595 83.919510,11.012715 86.296013,13.794520 
	C89.372215,17.395350 90.744987,22.396690 93.474510,26.366447 
	C95.503975,29.318060 93.740211,30.836571 91.876190,33.021702 
	C91.383530,33.253807 90.989754,33.320663 90.989754,33.320663 
	C90.545906,32.890301 90.102051,32.459938 89.283524,31.598999 
	C88.803116,30.582470 88.565178,29.494028 88.610474,29.482111 
	C92.256554,28.522821 91.558403,26.055033 89.719749,24.498112 
	C86.680824,21.924833 86.062050,18.408020 84.703812,15.108541 
	C84.438614,14.464313 83.120659,14.253456 82.288269,13.842712 
z"/>
<path fill="#F6F4F2" opacity="1.000000" stroke="none" 
	d="
M76.424896,7.258557 
	C75.489243,7.286040 74.741295,6.993274 73.839058,6.431177 
	C74.660706,6.420667 75.636658,6.679488 76.424896,7.258557 
z"/>
<path fill="#C81F25" opacity="1.000000" stroke="none" 
	d="
M90.990341,33.617950 
	C90.989754,33.320663 91.383530,33.253807 91.579948,33.215157 
	C91.779091,33.883080 91.781822,34.589645 91.790649,35.657951 
	C91.528145,35.318207 91.259529,34.616722 90.990341,33.617950 
z"/>
<path fill="#2E65B9" opacity="1.000000" stroke="none" 
	d="
M78.939041,33.489822 
	C79.147263,34.895985 79.355476,36.302151 79.288467,38.217194 
	C77.294807,38.816105 75.576378,38.906139 73.883705,38.629814 
	C70.135689,30.020575 68.973717,39.150040 66.470291,39.382008 
	C66.257423,38.708733 66.048248,38.034840 65.931992,37.660305 
	C63.210819,38.882362 60.627705,40.042416 57.622246,41.221779 
	C55.105453,40.686058 52.527294,40.714706 51.012955,39.459705 
	C47.381218,36.449928 44.449432,36.278423 41.187984,40.124268 
	C36.750458,37.927452 33.010662,34.577789 27.381861,36.142769 
	C25.321211,36.450645 23.651463,36.761936 21.981716,37.073231 
	C20.866369,35.460285 19.751022,33.847340 18.361719,31.890799 
	C18.087765,31.547203 18.101391,31.215927 18.101391,31.215927 
	C18.383297,31.038210 18.665205,30.860495 19.347797,30.372221 
	C20.223980,29.700333 20.699480,29.339003 21.174976,28.977673 
	C29.208506,25.426954 37.121288,21.551687 45.338455,18.494572 
	C48.377384,17.363970 52.155994,17.859451 55.555939,18.130856 
	C64.856453,18.873281 68.868248,27.988836 76.919418,31.867760 
	C77.635376,32.103340 77.817917,32.089340 78.000458,32.075336 
	C78.000458,32.075336 78.402191,32.293045 78.619202,32.616566 
	C78.870476,33.123333 78.904755,33.306576 78.939041,33.489822 
M44.404156,29.160917 
	C38.462959,30.497347 38.462959,30.497347 38.600048,35.059734 
	C41.316727,33.913746 43.970997,32.794079 46.816517,31.593739 
	C45.970974,30.815474 45.371616,30.263807 44.404156,29.160917 
z"/>
<path fill="#C81F25" opacity="1.000000" stroke="none" 
	d="
M81.913406,13.880693 
	C83.120659,14.253456 84.438614,14.464313 84.703812,15.108541 
	C86.062050,18.408020 86.680824,21.924833 89.719749,24.498112 
	C91.558403,26.055033 92.256554,28.522821 88.610474,29.482111 
	C88.565178,29.494028 88.803116,30.582470 88.993423,31.491394 
	C87.941040,31.895664 86.804085,31.976961 85.337097,31.672083 
	C85.728668,29.680782 86.450256,28.075657 87.639702,25.429827 
	C85.581131,24.886524 83.572372,24.356365 82.185234,23.990267 
	C81.563660,26.474876 81.240921,27.764969 80.716354,29.007381 
	C80.514542,28.959703 80.100098,28.943607 80.100098,28.943607 
	C80.056763,28.591366 79.885681,28.319513 79.329674,27.793373 
	C79.072487,27.458696 78.853188,27.027918 78.853188,27.027918 
	C78.900520,26.565275 78.947861,26.102631 79.306046,25.102192 
	C79.723602,23.990202 79.830299,23.416008 79.931808,22.552547 
	C79.913506,21.878349 79.900398,21.493416 80.159851,20.900635 
	C81.273102,19.222456 82.113808,17.752125 83.009003,16.186483 
	C81.504845,15.918985 79.981773,15.648124 79.030533,15.478957 
	C78.107002,17.332808 77.411682,18.728567 76.716362,20.124327 
	C76.396866,20.117212 76.158249,19.974693 75.908844,19.231424 
	C75.590675,18.515764 75.364159,18.265451 75.137650,18.015137 
	C75.085884,17.833467 75.034126,17.651796 75.066055,17.199354 
	C76.467552,14.202192 78.319412,12.609355 81.913406,13.880693 
z"/>
<path fill="#C71B24" opacity="1.000000" stroke="none" 
	d="
M64.740738,3.807476 
	C64.989677,5.874259 64.983582,7.675404 64.873283,9.830938 
	C64.028748,11.102188 63.288429,12.019049 62.161732,12.748528 
	C61.598171,12.281478 61.344173,12.134645 61.013367,12.120646 
	C61.013367,12.120646 61.014355,12.007143 60.861069,11.700766 
	C59.829910,10.217216 58.952042,9.040045 58.074169,7.862874 
	C58.915813,6.403815 59.757458,4.944756 60.790215,3.203821 
	C62.149452,3.128576 63.317577,3.335207 64.740738,3.807476 
z"/>
<path fill="#EDEDEF" opacity="1.000000" stroke="none" 
	d="
M52.006718,9.994791 
	C48.181049,9.898827 49.537430,7.574911 50.057060,5.218581 
	C49.720570,4.274225 49.438766,3.698520 48.729404,2.249339 
	C51.519104,4.089357 53.565342,5.439006 56.000328,7.045064 
	C54.966335,7.616511 54.179844,8.051175 53.196674,8.742920 
	C53.000000,9.000000 53.000305,8.999653 52.815365,9.077065 
	C52.385452,9.300476 52.243187,9.514639 52.154289,9.846312 
	C52.104950,9.895658 52.006718,9.994791 52.006718,9.994791 
z"/>
<path fill="#C41E23" opacity="1.000000" stroke="none" 
	d="
M76.768280,20.422550 
	C77.411682,18.728567 78.107002,17.332808 79.030533,15.478957 
	C79.981773,15.648124 81.504845,15.918985 83.009003,16.186483 
	C82.113808,17.752125 81.273102,19.222456 79.859955,20.980822 
	C78.545479,21.481251 77.803444,21.693645 77.061409,21.906040 
	C76.981003,21.510954 76.900597,21.115864 76.768280,20.422550 
z"/>
<path fill="#EEEAE7" opacity="1.000000" stroke="none" 
	d="
M25.974419,15.999197 
	C26.714527,15.380827 28.030224,14.155164 28.111357,14.232062 
	C30.801598,16.781868 31.955706,13.569595 34.027649,12.652702 
	C33.502293,15.704238 32.263004,18.211781 28.194145,16.324114 
	C27.984068,16.226654 27.334564,17.076382 26.619686,17.412537 
	C26.224625,16.893030 26.099522,16.446114 25.974419,15.999197 
z"/>
<path fill="#EEEAE7" opacity="1.000000" stroke="none" 
	d="
M34.874985,12.434159 
	C35.526127,11.556844 36.421589,10.626255 37.514854,10.145123 
	C38.942448,9.516861 40.526627,9.244418 42.419346,8.668422 
	C42.795254,9.800840 42.795254,11.083723 42.795254,11.835887 
	C40.024681,12.107872 37.615978,12.344333 34.874985,12.434159 
z"/>
<path fill="#C5272A" opacity="1.000000" stroke="none" 
	d="
M18.990702,23.990383 
	C18.975462,22.754772 18.960222,21.519161 18.944984,20.283550 
	C19.772902,21.030527 20.600821,21.777502 21.682568,22.756226 
	C21.831541,24.512405 21.726685,26.036842 21.328453,27.803997 
	C21.007120,27.587528 20.979160,27.128340 20.852650,26.112347 
	C20.588474,25.285765 20.352453,25.111025 20.046032,25.031324 
	C20.046032,25.031324 20.015791,24.990555 20.005726,24.686932 
	C19.838350,23.880150 19.681040,23.376991 19.523727,22.873835 
	C19.346052,23.246017 19.168377,23.618200 18.990702,23.990383 
z"/>
<path fill="#EAEDE9" opacity="1.000000" stroke="none" 
	d="
M70.150192,15.490246 
	C71.856300,14.697500 74.207382,11.845919 74.879410,16.679386 
	C73.279236,16.615993 71.789101,16.179991 70.150192,15.490246 
z"/>
<path fill="#E7EDE4" opacity="1.000000" stroke="none" 
	d="
M58.048759,8.256954 
	C58.952042,9.040045 59.829910,10.217216 60.804329,11.699434 
	C59.941700,10.886666 58.982525,9.768850 58.048759,8.256954 
z"/>
<path fill="#4C6746" opacity="1.000000" stroke="none" 
	d="
M64.793083,10.596485 
	C65.750488,10.810638 66.791519,11.366561 67.967384,12.224283 
	C67.027046,11.996807 65.951881,11.467530 64.793083,10.596485 
z"/>
<path fill="#CB2126" opacity="1.000000" stroke="none" 
	d="
M25.721859,15.889854 
	C26.099522,16.446114 26.224625,16.893030 26.439371,17.676750 
	C26.441986,18.194813 26.354958,18.376072 26.051395,18.767323 
	C25.213663,17.843750 24.592464,16.710186 23.999344,15.281927 
	C24.508045,15.251658 24.988674,15.516086 25.721859,15.889854 
z"/>
<path fill="#EAEDE9" opacity="1.000000" stroke="none" 
	d="
M79.806137,29.184330 
	C80.100098,28.943607 80.514542,28.959703 80.744049,29.349617 
	C81.064995,30.187582 81.156433,30.635635 81.247871,31.083691 
	C80.671349,31.765156 80.094818,32.446621 79.228668,33.308952 
	C78.904755,33.306576 78.870476,33.123333 78.843353,32.660774 
	C79.071060,31.395990 79.291626,30.410522 79.806137,29.184330 
z"/>
<path fill="#EAEDE9" opacity="1.000000" stroke="none" 
	d="
M77.067932,22.226528 
	C77.803444,21.693645 78.545479,21.481251 79.587402,21.188671 
	C79.900398,21.493416 79.913506,21.878349 79.680069,22.670292 
	C79.242546,23.390249 79.051567,23.703196 78.860596,24.016144 
	C78.265221,23.526434 77.669838,23.036724 77.067932,22.226528 
z"/>
<path fill="#C5272A" opacity="1.000000" stroke="none" 
	d="
M23.387730,22.029795 
	C23.475533,21.418947 23.890625,20.751682 24.628166,20.034069 
	C24.538752,20.646940 24.126884,21.310160 23.387730,22.029795 
z"/>
<path fill="#CB2126" opacity="1.000000" stroke="none" 
	d="
M21.111629,28.743095 
	C20.699480,29.339003 20.223980,29.700333 19.438019,30.134998 
	C19.537949,29.508064 19.948341,28.807796 20.698643,28.065092 
	C21.038551,28.022657 21.048279,28.508518 21.111629,28.743095 
z"/>
<path fill="#EDEDEF" opacity="1.000000" stroke="none" 
	d="
M53.989475,10.547930 
	C53.423878,10.744217 52.826595,10.663159 52.118019,10.288446 
	C52.006718,9.994791 52.104950,9.895658 52.341072,9.782856 
	C52.792923,9.493813 52.933960,9.270346 53.000305,8.999653 
	C53.000305,8.999653 53.000000,9.000000 52.999847,9.000096 
	C53.319061,9.423656 53.638428,9.847120 53.989475,10.547930 
z"/>
<path fill="#C41E23" opacity="1.000000" stroke="none" 
	d="
M78.945236,24.251938 
	C79.051567,23.703196 79.242546,23.390249 79.685265,22.959558 
	C79.830299,23.416008 79.723602,23.990202 79.397797,24.765282 
	C79.129082,24.806686 79.079475,24.647209 78.945236,24.251938 
z"/>
<path fill="#EEEAE7" opacity="1.000000" stroke="none" 
	d="
M42.986740,4.836087 
	C42.718048,4.838590 42.466007,4.608102 42.125191,4.134319 
	C42.358742,4.128382 42.681068,4.365738 42.986740,4.836087 
z"/>
<path fill="#EDEDEF" opacity="1.000000" stroke="none" 
	d="
M52.172318,13.355547 
	C52.457310,13.117628 52.895401,13.074557 53.658066,13.100895 
	C53.430233,13.297001 52.877831,13.423698 52.172318,13.355547 
z"/>
<path fill="#E7EDE4" opacity="1.000000" stroke="none" 
	d="
M68.021027,13.372999 
	C68.320915,13.497406 68.623039,13.921306 69.000626,14.660673 
	C68.725143,14.541593 68.374207,14.107042 68.021027,13.372999 
z"/>
<path fill="#E7EDE4" opacity="1.000000" stroke="none" 
	d="
M61.095390,12.329960 
	C61.344173,12.134645 61.598171,12.281478 61.852020,12.774872 
	C61.608898,12.954745 61.358475,12.804971 61.095390,12.329960 
z"/>
<path fill="#EAEDE9" opacity="1.000000" stroke="none" 
	d="
M78.710670,27.143284 
	C78.853188,27.027918 79.072487,27.458696 79.101105,27.698536 
	C78.942528,27.711802 78.755341,27.485226 78.710670,27.143284 
z"/>
<path fill="#EDEDEF" opacity="1.000000" stroke="none" 
	d="
M46.082272,13.245095 
	C46.165947,13.082648 46.333145,13.073264 46.744186,13.124294 
	C46.713951,13.255858 46.439873,13.327008 46.082272,13.245095 
z"/>
<path fill="#C32C2D" opacity="1.000000" stroke="none" 
	d="
M75.112122,18.292450 
	C75.364159,18.265451 75.590675,18.515764 75.855103,19.021526 
	C75.624214,19.041235 75.355408,18.805498 75.112122,18.292450 
z"/>
<path fill="#EAEDE9" opacity="1.000000" stroke="none" 
	d="
M77.945984,31.898230 
	C77.817917,32.089340 77.635376,32.103340 77.242584,31.940796 
	C77.318733,31.749872 77.605118,31.735497 77.945984,31.898230 
z"/>
<path fill="#C41921" opacity="1.000000" stroke="none" 
	d="
M93.115448,60.490768 
	C94.165230,60.771675 95.700546,60.721512 96.164459,61.401890 
	C97.152596,62.851078 97.584496,64.679535 98.224770,66.302910 
	C95.971764,67.825142 91.482040,70.858604 86.345917,73.896667 
	C84.799942,73.600533 83.900368,73.299797 82.971649,72.680008 
	C82.572655,71.873337 82.202820,71.385719 81.856491,70.584961 
	C81.910416,69.854691 81.940826,69.437569 82.200668,68.895508 
	C82.607765,68.478279 82.785446,68.185982 83.114960,67.588417 
	C86.549683,65.019020 89.832565,62.754894 93.115448,60.490768 
z"/>
<path fill="#E6E6DF" opacity="1.000000" stroke="none" 
	d="
M93.087936,60.064541 
	C89.832565,62.754894 86.549683,65.019020 82.905952,67.516663 
	C82.545105,67.750168 82.132133,67.592278 82.025970,67.312576 
	C81.198112,66.370056 80.476418,65.707237 79.790558,64.810349 
	C79.806580,64.198868 79.609596,63.983505 79.305847,63.669739 
	C80.098366,62.627110 80.820480,61.844933 81.872726,61.330315 
	C83.089310,61.712402 83.975761,61.826931 84.427795,61.885334 
	C85.059692,58.796322 85.615341,56.080002 86.170990,53.363686 
	C86.933296,53.911007 87.695595,54.458332 88.760086,54.952995 
	C92.509560,54.695278 93.160858,56.849617 93.087936,60.064541 
z"/>
<path fill="#BE2121" opacity="1.000000" stroke="none" 
	d="
M83.000801,72.999062 
	C83.900368,73.299797 84.799942,73.600533 86.032867,74.038208 
	C84.211945,78.994110 76.522705,81.863762 71.061119,79.494614 
	C70.975220,79.134216 71.034325,79.023804 71.398361,79.048851 
	C74.157806,78.678947 76.785995,78.759666 78.874504,77.737602 
	C80.526230,76.929283 81.515175,74.766624 82.849045,73.153824 
	C82.899628,73.102234 83.000801,72.999062 83.000801,72.999062 
z"/>
<path fill="#C73D3F" opacity="1.000000" stroke="none" 
	d="
M70.912918,79.140572 
	C70.463844,80.376808 70.077065,81.606697 69.336670,82.517029 
	C68.985817,81.783714 68.988594,81.369949 68.988297,80.591263 
	C68.965675,79.497116 68.946121,78.767906 69.177544,77.899101 
	C69.933830,77.492317 70.439140,77.225113 70.957443,77.302788 
	C70.991730,78.106377 71.013031,78.565086 71.034332,79.023804 
	C71.034325,79.023804 70.975220,79.134216 70.912918,79.140572 
z"/>
<path fill="#BE1719" opacity="1.000000" stroke="none" 
	d="
M68.991371,80.956184 
	C68.988594,81.369949 68.985817,81.783714 68.972084,82.507675 
	C68.795937,82.867325 68.630745,82.916763 68.207047,82.974533 
	C67.425827,82.848648 66.903114,82.714447 66.420769,82.228485 
	C66.651924,81.592415 66.842712,81.308121 67.359940,81.010902 
	C68.121376,80.984047 68.556374,80.970116 68.991371,80.956184 
z"/>
<path fill="#C51B24" opacity="1.000000" stroke="none" 
	d="
M91.415588,40.022686 
	C91.455109,39.395412 91.850250,38.737740 92.556236,38.017426 
	C92.501793,38.633953 92.136497,39.313122 91.415588,40.022686 
z"/>
<path fill="#C51B24" opacity="1.000000" stroke="none" 
	d="
M90.309883,42.837105 
	C90.164345,42.109497 90.336220,41.255627 90.786301,40.221222 
	C90.918770,40.930744 90.773033,41.820793 90.309883,42.837105 
z"/>
<path fill="#C41018" opacity="1.000000" stroke="none" 
	d="
M9.264295,70.190872 
	C9.615508,68.079445 10.239062,66.199097 11.007048,63.966160 
	C14.129538,64.649658 17.107594,65.685745 20.397686,67.171219 
	C21.476147,70.365807 22.242577,73.111023 22.709990,76.047150 
	C22.272427,76.923271 22.133881,77.608482 21.995333,78.293686 
	C19.647579,76.719299 17.326752,75.102638 14.943157,73.584526 
	C13.183399,72.463737 11.341781,71.471481 9.264295,70.190872 
z"/>
<path fill="#DC9D8F" opacity="1.000000" stroke="none" 
	d="
M21.931423,78.550957 
	C22.133881,77.608482 22.272427,76.923271 22.942709,76.105682 
	C23.474443,75.973289 23.949350,76.049271 23.949350,76.049271 
	C23.953119,76.509247 23.956888,76.969215 23.911184,77.770767 
	C23.196980,78.344307 22.532248,78.576271 21.931423,78.550957 
z"/>
<path fill="#BC9719" opacity="1.000000" stroke="none" 
	d="
M70.944458,76.957916 
	C70.439140,77.225113 69.933830,77.492317 68.962524,77.866211 
	C68.496536,77.972916 68.062752,77.931717 67.869827,77.691666 
	C67.085091,77.323174 66.493286,77.194725 65.512787,77.023392 
	C63.735249,77.660736 62.346416,78.340965 60.974297,79.011726 
	C60.991005,79.002258 60.998318,78.964066 60.998318,78.964066 
	C55.962570,78.663124 50.926823,78.362175 45.425453,78.099861 
	C44.959827,78.138489 44.488258,78.010147 44.247250,77.667892 
	C44.008907,76.934578 44.011570,76.543533 44.372124,76.105469 
	C45.797272,75.704063 46.864529,75.349670 47.723625,74.709709 
	C46.343811,74.278183 45.172157,74.132233 43.736519,73.874191 
	C42.957607,73.518845 42.442677,73.275581 41.706684,73.020531 
	C41.485619,73.008751 41.043159,72.992744 41.214462,72.722702 
	C42.292870,71.804718 43.199970,71.156769 44.137634,70.486984 
	C41.168388,69.889915 38.624344,69.378342 35.885933,68.635376 
	C35.110138,68.269142 34.528709,68.134300 33.705444,67.885353 
	C33.002018,67.503685 32.540421,67.236130 31.903227,66.721756 
	C31.116417,65.968315 30.505203,65.461685 29.975136,64.885933 
	C30.056284,64.816811 30.258369,64.748894 30.667603,64.768265 
	C32.726234,64.883972 34.375637,64.980309 36.217979,65.376411 
	C38.477764,66.118271 40.544609,66.560356 42.837437,67.302750 
	C45.389435,68.330872 47.715446,69.058678 50.439560,69.815735 
	C54.339775,68.530632 57.841892,67.216255 61.666573,65.696976 
	C65.946266,65.259850 69.903389,65.027618 73.725166,65.106491 
	C72.390625,65.944473 71.191429,66.471359 69.742592,67.016525 
	C69.330162,67.072533 69.167381,67.110245 68.714272,67.227066 
	C67.603470,67.853294 66.782990,68.400414 65.668381,68.988487 
	C64.911308,69.359596 64.448387,69.689743 63.610432,70.003677 
	C62.484222,69.995026 61.733040,70.002586 60.649818,70.010864 
	C59.687000,70.374596 59.056213,70.737617 58.425426,71.100632 
	C58.932682,71.433723 59.439938,71.766808 59.959747,72.318695 
	C59.972298,72.537498 59.960857,72.975655 59.847206,73.194687 
	C59.529629,73.685120 59.267994,73.878418 58.636482,73.987587 
	C57.535290,74.335114 56.746269,74.688683 56.221687,75.315521 
	C60.009151,75.085197 63.532177,74.581596 67.361710,74.058426 
	C68.075752,74.002876 68.483269,73.966904 69.171188,73.839630 
	C69.992691,73.194695 70.533806,72.641045 71.282928,72.061386 
	C71.490944,72.035370 71.909119,72.005196 72.251358,72.015213 
	C73.049683,72.007660 73.505775,71.990089 74.216919,71.821228 
	C74.644989,71.118019 74.818001,70.566109 75.261139,69.886719 
	C75.674103,68.499901 75.816925,67.240540 76.224792,65.986603 
	C76.666573,65.990662 76.843300,65.989304 77.315025,65.975906 
	C78.324921,65.657387 79.039825,65.350899 79.754730,65.044418 
	C80.476418,65.707237 81.198112,66.370056 81.952736,67.665688 
	C81.980858,68.539146 81.976051,68.779793 81.971237,69.020447 
	C81.940826,69.437569 81.910416,69.854691 81.532928,70.673935 
	C80.802254,72.049301 80.418663,73.022552 79.721848,73.886368 
	C76.587227,74.837273 73.765846,75.897598 70.944458,76.957916 
z"/>
<path fill="#D27975" opacity="1.000000" stroke="none" 
	d="
M68.062752,77.931717 
	C68.062752,77.931717 68.496536,77.972916 68.711548,78.005798 
	C68.946121,78.767906 68.965675,79.497116 68.988297,80.591263 
	C68.556374,80.970116 68.121376,80.984047 67.068787,80.973053 
	C65.616478,81.236702 64.781761,81.525269 63.947044,81.813843 
	C63.020767,81.084747 62.094486,80.355659 61.083260,79.295319 
	C60.998318,78.964066 60.991005,79.002258 61.247940,78.895523 
	C62.979485,78.465530 64.454094,78.142273 66.052628,78.045105 
	C66.805290,78.158043 67.434021,78.044884 68.062752,77.931717 
z"/>
<path fill="#D35F5E" opacity="1.000000" stroke="none" 
	d="
M64.291382,81.882629 
	C64.781761,81.525269 65.616478,81.236702 66.742340,80.985977 
	C66.842712,81.308121 66.651924,81.592415 66.242722,82.020996 
	C65.561447,82.094002 65.098587,82.022713 64.291382,81.882629 
z"/>
<path fill="#E28E85" opacity="1.000000" stroke="none" 
	d="
M44.274387,81.937172 
	C44.128994,81.405746 44.261604,80.904312 44.624084,80.273468 
	C44.753433,80.751755 44.652912,81.359459 44.274387,81.937172 
z"/>
<path fill="#BA9219" opacity="1.000000" stroke="none" 
	d="
M44.014236,76.152481 
	C44.011570,76.543533 44.008907,76.934578 44.008087,77.617760 
	C44.009933,77.909889 43.595402,77.999794 43.388191,78.036194 
	C37.022842,77.278290 31.107893,74.335014 24.311630,76.013748 
	C23.949350,76.049271 23.474443,75.973289 23.241724,75.914764 
	C22.242577,73.111023 21.476147,70.365807 20.740726,67.281494 
	C21.197281,66.148628 21.622829,65.354866 22.439182,64.249542 
	C24.580996,64.270317 26.332003,64.602669 28.058006,65.281624 
	C28.033022,66.090683 28.033047,66.553131 28.112534,67.280380 
	C28.459454,68.027458 28.726912,68.509727 29.013485,69.315575 
	C29.686245,70.434105 30.339891,71.229065 31.297775,72.043114 
	C32.103310,72.355148 32.604603,72.648094 33.302383,73.231689 
	C34.648495,73.695854 35.798111,73.869354 36.954895,74.043320 
	C36.962067,74.043793 36.941517,74.070816 37.197624,74.333633 
	C39.640564,75.115128 41.827400,75.633804 44.014236,76.152481 
z"/>
<path fill="#D88380" opacity="1.000000" stroke="none" 
	d="
M40.090393,80.411758 
	C40.577026,80.979584 41.012768,81.853592 41.188931,82.862427 
	C40.632736,82.237488 40.336121,81.477707 40.090393,80.411758 
z"/>
<path fill="#F3F7F5" opacity="1.000000" stroke="none" 
	d="
M27.772762,36.146187 
	C33.010662,34.577789 36.750458,37.927452 41.478485,40.380310 
	C45.727005,42.791325 49.253151,45.110001 52.972263,47.060806 
	C56.650669,48.990257 60.148445,51.120228 64.901138,50.225010 
	C67.669365,49.703590 70.829201,51.261211 73.585617,52.266136 
	C73.485931,56.386192 73.613457,60.123508 73.543152,63.632034 
	C73.133179,62.473473 72.921021,61.543709 72.708870,60.613941 
	C72.581306,61.115467 72.453735,61.616997 72.326164,62.118526 
	C65.888214,60.772472 59.450260,59.426422 52.707001,57.897339 
	C50.824596,56.941536 49.320999,55.841164 47.654419,55.467274 
	C44.607548,54.783718 41.267532,55.054432 38.404724,53.980743 
	C33.401871,52.104443 28.667698,49.511749 23.820934,47.219261 
	C23.681866,46.960827 23.512119,46.724419 23.417980,46.008762 
	C24.940434,42.387054 26.356598,39.266621 27.772762,36.146187 
z"/>
<path fill="#3C662A" opacity="1.000000" stroke="none" 
	d="
M23.865475,47.588997 
	C28.667698,49.511749 33.401871,52.104443 38.404724,53.980743 
	C41.267532,55.054432 44.607548,54.783718 47.654419,55.467274 
	C49.320999,55.841164 50.824596,56.941536 52.469204,58.185646 
	C50.632626,59.075306 48.728535,59.493622 46.468517,59.905144 
	C45.403397,59.892075 44.694206,59.885796 43.734337,59.596581 
	C41.471855,59.336784 39.460045,59.359924 37.037987,59.287235 
	C35.803234,59.105061 34.978729,59.018719 34.063072,58.584980 
	C32.377037,56.712456 30.782154,55.187321 29.039021,53.402920 
	C26.922867,53.710308 24.954964,54.276966 22.979441,54.495342 
	C22.929304,53.684059 22.886789,53.221058 22.844275,52.758060 
	C23.199522,51.158283 23.554768,49.558506 23.865475,47.588997 
z"/>
<path fill="#3C6331" opacity="1.000000" stroke="none" 
	d="
M27.381859,36.142769 
	C26.356598,39.266621 24.940434,42.387054 23.322998,45.811779 
	C22.308283,45.761944 21.494839,45.407818 20.142078,44.941635 
	C19.602762,44.829575 19.185261,44.600151 19.185261,44.600151 
	C16.992273,44.206017 14.799287,43.811886 12.195652,43.343952 
	C13.855785,42.762646 13.127386,38.018757 16.935619,41.423054 
	C17.244051,41.698769 20.168652,39.047897 21.929642,37.415092 
	C23.651463,36.761936 25.321211,36.450645 27.381859,36.142769 
z"/>
<path fill="#415E34" opacity="1.000000" stroke="none" 
	d="
M22.543827,52.848579 
	C22.886789,53.221058 22.929304,53.684059 22.738014,54.574333 
	C22.341305,55.048286 22.178398,55.094963 21.701763,55.219955 
	C20.575266,56.798500 19.762499,58.298737 18.949732,59.798969 
	C17.839163,57.895596 16.728594,55.992218 15.432874,53.763733 
	C15.927499,52.750210 16.607275,52.061798 17.648151,51.524815 
	C18.315266,51.962444 18.621279,52.248638 18.927292,52.534836 
	C20.032654,52.669590 21.138016,52.804340 22.543827,52.848579 
z"/>
<path fill="#C81C24" opacity="1.000000" stroke="none" 
	d="
M19.047150,44.918892 
	C19.185261,44.600151 19.602762,44.829575 19.803341,44.958435 
	C20.375402,46.399536 20.746885,47.711777 21.256483,49.511909 
	C19.661480,49.156158 18.210970,48.832634 16.135466,48.369713 
	C17.338058,47.011677 18.123550,46.124657 19.047150,44.918892 
z"/>
<path fill="#CB2126" opacity="1.000000" stroke="none" 
	d="
M18.055412,30.912876 
	C18.101391,31.215927 18.087765,31.547203 18.075880,31.712528 
	C17.593948,32.229809 17.123901,32.581772 16.345682,32.947430 
	C16.419590,31.886053 16.801672,30.810976 17.183752,29.735901 
	C17.458981,30.027208 17.734207,30.318516 18.055412,30.912876 
z"/>
<path fill="#C81C24" opacity="1.000000" stroke="none" 
	d="
M18.842407,52.208332 
	C18.621279,52.248638 18.315266,51.962444 17.862295,51.394402 
	C18.062735,51.368977 18.410130,51.625404 18.842407,52.208332 
z"/>
<path fill="#C52024" opacity="1.000000" stroke="none" 
	d="
M38.464314,5.444596 
	C38.523926,5.408100 38.404701,5.481092 38.464314,5.444596 
z"/>
<path fill="#C52024" opacity="1.000000" stroke="none" 
	d="
M36.538040,8.548818 
	C36.479046,8.584494 36.597031,8.513142 36.538040,8.548818 
z"/>
<path fill="#C52024" opacity="1.000000" stroke="none" 
	d="
M33.446220,9.537181 
	C33.411278,9.479452 33.481163,9.594910 33.446220,9.537181 
z"/>
<path fill="#CB2126" opacity="1.000000" stroke="none" 
	d="
M19.096741,24.206181 
	C19.168377,23.618200 19.346052,23.246017 19.523727,22.873835 
	C19.681040,23.376991 19.838350,23.880150 19.988857,24.667969 
	C19.655588,24.873711 19.395830,24.696825 19.096741,24.206181 
z"/>
<path fill="#CB2126" opacity="1.000000" stroke="none" 
	d="
M20.129284,25.236073 
	C20.352453,25.111025 20.588474,25.285765 20.824509,25.768461 
	C20.607809,25.876474 20.380348,25.696289 20.129284,25.236073 
z"/>
<path fill="#BD221D" opacity="1.000000" stroke="none" 
	d="
M19.009581,60.146645 
	C19.762499,58.298737 20.575266,56.798500 21.702404,55.583321 
	C22.354790,57.379757 22.692806,58.891140 22.999411,60.262066 
	C25.118364,59.281456 26.851236,58.479515 28.881321,57.540028 
	C28.959892,56.544163 29.073580,55.103176 29.187271,53.662189 
	C30.782154,55.187321 32.377037,56.712456 33.924522,58.899376 
	C32.670872,61.290405 31.464622,63.019650 30.258369,64.748894 
	C30.258369,64.748894 30.056284,64.816811 29.673492,64.898422 
	C28.888140,64.965019 28.485575,64.950012 28.083012,64.935013 
	C26.332003,64.602669 24.580996,64.270317 22.494202,63.913338 
	C21.128752,62.757248 20.099091,61.625786 19.009581,60.146645 
z"/>
<path fill="#FCFBFB" opacity="1.000000" stroke="none" 
	d="
M9.995600,55.003345 
	C10.111663,55.146267 10.232189,55.285736 10.352715,55.425205 
	C10.268161,55.374359 10.183608,55.323513 10.053162,55.131683 
	C10.007270,54.990696 10.000063,54.999893 9.995600,55.003345 
z"/>
<path fill="#336432" opacity="1.000000" stroke="none" 
	d="
M73.812836,51.883400 
	C70.829201,51.261211 67.669365,49.703590 64.901138,50.225010 
	C60.148445,51.120228 56.650669,48.990257 52.972263,47.060806 
	C49.253151,45.110001 45.727005,42.791325 41.825829,40.377747 
	C44.449432,36.278423 47.381218,36.449928 51.012955,39.459705 
	C52.527294,40.714706 55.105453,40.686058 57.884426,41.460548 
	C63.014400,43.648945 67.064651,43.332417 70.772224,39.880829 
	C71.470314,39.230942 72.812813,39.273270 73.857956,38.996178 
	C75.576378,38.906139 77.294807,38.816105 79.264603,38.598732 
	C81.393173,39.544113 82.954582,43.213905 85.938950,39.089500 
	C86.426788,38.985954 86.885529,39.164181 86.885529,39.164181 
	C87.400642,40.407890 87.915764,41.651596 88.430885,42.895306 
	C87.250816,43.100666 86.071243,43.478325 84.890587,43.481750 
	C79.599586,43.497108 77.197960,46.831482 78.838989,52.827934 
	C79.004143,53.413212 78.994270,53.907074 78.672073,53.901962 
	C76.837524,53.225697 75.325180,52.554550 73.812836,51.883400 
z"/>
<path fill="#C51B24" opacity="1.000000" stroke="none" 
	d="
M81.461288,31.275640 
	C81.156433,30.635635 81.064995,30.187582 80.945862,29.397295 
	C81.240921,27.764969 81.563660,26.474876 82.185234,23.990267 
	C83.572372,24.356365 85.581131,24.886524 87.639702,25.429827 
	C86.450256,28.075657 85.728668,29.680782 85.002838,31.642693 
	C83.330902,35.320042 82.593079,32.829647 81.461288,31.275640 
z"/>
<path fill="#2E582A" opacity="1.000000" stroke="none" 
	d="
M78.994270,53.907074 
	C78.994270,53.907074 79.004143,53.413212 79.017113,53.166405 
	C81.208069,52.949989 83.386063,52.980381 85.867523,53.187229 
	C85.615341,56.080002 85.059692,58.796322 84.427795,61.885334 
	C83.975761,61.826931 83.089310,61.712402 81.977875,60.999447 
	C83.643379,57.042675 80.439171,55.848553 78.994270,53.907074 
z"/>
<path fill="#C51B24" opacity="1.000000" stroke="none" 
	d="
M87.042664,38.851204 
	C86.885529,39.164181 86.426788,38.985954 86.210983,38.866962 
	C86.383324,37.488186 86.771477,36.228401 87.159622,34.968613 
	C87.679749,35.175545 88.199875,35.382477 88.719994,35.589405 
	C88.213264,36.572346 87.706528,37.555286 87.042664,38.851204 
z"/>
<path fill="#D9E5EB" opacity="1.000000" stroke="none" 
	d="
M73.883705,38.629814 
	C72.812813,39.273270 71.470314,39.230942 70.772224,39.880829 
	C67.064651,43.332417 63.014400,43.648945 58.306778,41.441242 
	C60.627705,40.042416 63.210819,38.882362 65.931992,37.660305 
	C66.048248,38.034840 66.257423,38.708733 66.470291,39.382008 
	C68.973717,39.150040 70.135689,30.020575 73.883705,38.629814 
z"/>
<path fill="#CEDDEB" opacity="1.000000" stroke="none" 
	d="
M44.588207,29.436527 
	C45.371616,30.263807 45.970974,30.815474 46.816517,31.593739 
	C43.970997,32.794079 41.316727,33.913746 38.600048,35.059734 
	C38.462959,30.497347 38.462959,30.497347 44.588207,29.436527 
z"/>
<path fill="#F6F8F6" opacity="1.000000" stroke="none" 
	d="
M52.815365,9.077065 
	C52.933960,9.270346 52.792923,9.493813 52.390411,9.733510 
	C52.243187,9.514639 52.385452,9.300476 52.815365,9.077065 
z"/>
<path fill="#BE2121" opacity="1.000000" stroke="none" 
	d="
M80.035080,73.995796 
	C80.418663,73.022552 80.802254,72.049301 81.509415,70.987083 
	C82.202820,71.385719 82.572655,71.873337 82.971649,72.680008 
	C83.000801,72.999062 82.899628,73.102234 82.559814,73.138275 
	C81.491699,73.448151 80.763390,73.721970 80.035080,73.995796 
z"/>
<path fill="#BE2121" opacity="1.000000" stroke="none" 
	d="
M82.200668,68.895508 
	C81.976051,68.779793 81.980858,68.539146 82.058899,67.945389 
	C82.132133,67.592278 82.545105,67.750168 82.754112,67.821930 
	C82.785446,68.185982 82.607765,68.478279 82.200668,68.895508 
z"/>
<path fill="#C12422" opacity="1.000000" stroke="none" 
	d="
M78.672073,53.901962 
	C80.439171,55.848553 83.643379,57.042675 81.647751,60.731888 
	C80.820480,61.844933 80.098366,62.627110 79.024551,63.551517 
	C77.757492,63.429493 76.842125,63.165237 75.700653,63.035439 
	C75.019348,63.427837 74.564156,63.685776 74.024216,63.890785 
	C73.939484,63.837860 73.740990,63.860828 73.740982,63.860828 
	C73.613457,60.123508 73.485931,56.386192 73.585617,52.266136 
	C75.325180,52.554550 76.837524,53.225697 78.672073,53.901962 
z"/>
<path fill="#B65D23" opacity="1.000000" stroke="none" 
	d="
M75.926765,62.900982 
	C76.842125,63.165237 77.757492,63.429493 78.954147,63.811974 
	C79.609596,63.983505 79.806580,64.198868 79.790558,64.810349 
	C79.039825,65.350899 78.324921,65.657387 77.304153,65.652870 
	C76.702103,64.605232 76.405914,63.868591 76.064728,63.073616 
	C76.019737,63.015282 75.926765,62.900982 75.926765,62.900982 
z"/>
<path fill="#D06361" opacity="1.000000" stroke="none" 
	d="
M79.721848,73.886368 
	C80.763390,73.721970 81.491699,73.448151 82.509232,73.189865 
	C81.515175,74.766624 80.526230,76.929283 78.874504,77.737602 
	C76.785995,78.759666 74.157806,78.678947 71.398361,79.048851 
	C71.013031,78.565086 70.991730,78.106377 70.957443,77.302795 
	C73.765846,75.897598 76.587227,74.837273 79.721848,73.886368 
z"/>
<path fill="#EBC1AF" opacity="1.000000" stroke="none" 
	d="
M46.824448,59.911942 
	C48.728535,59.493622 50.632626,59.075306 52.774513,58.368679 
	C59.450260,59.426422 65.888214,60.772472 72.326164,62.118526 
	C72.453735,61.616997 72.581306,61.115467 72.708870,60.613941 
	C72.921021,61.543709 73.133179,62.473473 73.543159,63.632034 
	C73.740990,63.860828 73.939484,63.837860 73.935333,64.095917 
	C73.931190,64.353973 73.860512,64.795395 73.860512,64.795395 
	C69.903389,65.027618 65.946266,65.259850 61.258644,65.720100 
	C59.362720,64.743965 58.197296,63.539799 57.397484,62.713394 
	C54.659378,63.033535 51.710812,63.378284 49.529686,63.633308 
	C48.383408,62.056473 47.603928,60.984207 46.824448,59.911942 
z"/>
<path fill="#F5CABE" opacity="1.000000" stroke="none" 
	d="
M46.468521,59.905148 
	C47.603928,60.984207 48.383408,62.056473 49.529686,63.633308 
	C51.710812,63.378284 54.659378,63.033535 57.397484,62.713394 
	C58.197296,63.539799 59.362720,64.743965 60.936073,65.925003 
	C57.841892,67.216255 54.339775,68.530632 50.379684,69.479103 
	C47.426830,67.831787 44.931957,66.550369 42.094425,65.205292 
	C40.278740,62.446510 41.318607,60.817863 43.985012,59.879517 
	C44.694206,59.885796 45.403397,59.892075 46.468521,59.905148 
z"/>
<path fill="#D82223" opacity="1.000000" stroke="none" 
	d="
M43.734337,59.596581 
	C41.318607,60.817863 40.278740,62.446510 42.187500,65.489395 
	C42.619308,66.225578 42.615379,66.614014 42.611450,67.002441 
	C40.544609,66.560356 38.477764,66.118271 36.309448,65.016617 
	C36.621395,62.699047 37.034817,61.041058 37.448235,59.383064 
	C39.460045,59.359924 41.471855,59.336784 43.734337,59.596581 
z"/>
<path fill="#DFBDA7" opacity="1.000000" stroke="none" 
	d="
M37.037987,59.287235 
	C37.034817,61.041058 36.621395,62.699047 36.116508,64.716843 
	C34.375637,64.980309 32.726234,64.883972 30.667603,64.768265 
	C31.464622,63.019650 32.670872,61.290405 34.015675,59.246765 
	C34.978729,59.018719 35.803234,59.105061 37.037987,59.287235 
z"/>
<path fill="#B05C1A" opacity="1.000000" stroke="none" 
	d="
M73.725166,65.106491 
	C73.860512,64.795395 73.931190,64.353973 74.020073,64.148842 
	C74.564156,63.685776 75.019348,63.427837 75.700653,63.035439 
	C75.926765,62.900982 76.019737,63.015282 76.031540,63.426727 
	C76.015472,64.552513 75.987610,65.266846 75.959747,65.981186 
	C75.816925,67.240540 75.674103,68.499901 75.014221,70.045135 
	C74.318741,70.878181 74.140305,71.425354 73.961868,71.972519 
	C73.505775,71.990089 73.049683,72.007660 72.277847,71.770828 
	C71.962097,71.516418 71.982239,71.025658 72.020096,70.701752 
	C72.045387,69.264709 72.032822,68.151566 71.682671,67.021866 
	C70.894135,67.002953 70.443192,67.000603 69.992241,66.998245 
	C71.191429,66.471359 72.390625,65.944473 73.725166,65.106491 
z"/>
<path fill="#E9BAA7" opacity="1.000000" stroke="none" 
	d="
M42.837437,67.302750 
	C42.615379,66.614014 42.619308,66.225578 42.530159,65.553055 
	C44.931957,66.550369 47.426830,67.831787 49.981583,69.449844 
	C47.715446,69.058678 45.389435,68.330872 42.837437,67.302750 
z"/>
<path fill="#B86116" opacity="1.000000" stroke="none" 
	d="
M36.080296,68.866768 
	C38.624344,69.378342 41.168388,69.889915 44.137634,70.486984 
	C43.199970,71.156769 42.292870,71.804718 40.811676,72.728653 
	C39.167294,73.011757 38.097008,73.018875 37.012306,72.766617 
	C36.985443,72.334518 36.972992,72.161789 36.860130,71.724899 
	C36.502808,70.958870 36.245899,70.457008 36.000748,69.682114 
	C36.035103,69.228317 36.057701,69.047546 36.080296,68.866768 
z"/>
<path fill="#C26020" opacity="1.000000" stroke="none" 
	d="
M35.988991,69.955139 
	C36.245899,70.457008 36.502808,70.958870 36.521729,71.727631 
	C35.224457,72.310028 34.165176,72.625534 33.105896,72.941040 
	C32.604603,72.648094 32.103310,72.355148 31.295235,71.664795 
	C30.980648,70.512039 30.972841,69.756699 30.977507,68.670227 
	C30.994776,67.897621 30.999573,67.456139 31.273254,67.009445 
	C31.721033,66.992340 31.899927,66.980453 32.078823,66.968567 
	C32.540421,67.236130 33.002018,67.503685 33.832272,68.149857 
	C34.796947,69.004028 35.392967,69.479584 35.988991,69.955139 
z"/>
<path fill="#B07717" opacity="1.000000" stroke="none" 
	d="
M59.960857,72.975655 
	C59.960857,72.975655 59.972298,72.537498 60.186005,72.194382 
	C60.612770,71.589851 60.825832,71.328438 61.356834,71.074722 
	C62.776630,71.067024 63.878487,71.051628 65.241196,70.927895 
	C65.994507,70.546532 66.486961,70.273514 67.234756,70.000946 
	C67.660202,70.007835 67.830307,70.014290 68.000092,70.357468 
	C67.996605,71.143059 67.993431,71.591942 67.983253,72.266075 
	C67.976242,72.491333 67.955154,72.941574 67.716957,72.960411 
	C67.478760,72.979248 67.001915,73.010521 66.747406,73.005768 
	C66.323212,73.002281 66.153519,73.003548 65.586731,72.997635 
	C64.130180,72.995255 63.070732,73.000038 61.669769,73.004066 
	C60.872456,72.994095 60.416656,72.984871 59.960857,72.975655 
z"/>
<path fill="#AA6216" opacity="1.000000" stroke="none" 
	d="
M44.372124,76.105469 
	C41.827400,75.633804 39.640564,75.115128 37.587456,74.310974 
	C39.123367,73.694443 40.525558,73.363380 41.927750,73.032318 
	C42.442677,73.275581 42.957607,73.518845 43.958702,74.151581 
	C45.607174,74.692467 46.769482,74.843864 47.931786,74.995270 
	C46.864529,75.349670 45.797272,75.704063 44.372124,76.105469 
z"/>
<path fill="#B26317" opacity="1.000000" stroke="none" 
	d="
M59.847206,73.194687 
	C60.416656,72.984871 60.872456,72.994095 61.871887,73.270401 
	C63.604950,73.359924 64.794388,73.182365 65.983818,73.004807 
	C66.153519,73.003548 66.323212,73.002281 66.754913,73.272873 
	C67.029686,73.722488 67.042442,73.900238 67.055199,74.077995 
	C63.532177,74.581596 60.009151,75.085197 56.562843,75.304382 
	C57.409256,74.677849 58.178955,74.335739 58.948654,73.993629 
	C59.267994,73.878418 59.529629,73.685120 59.847206,73.194687 
z"/>
<path fill="#B95D1F" opacity="1.000000" stroke="none" 
	d="
M67.990265,72.040817 
	C67.993431,71.591942 67.996605,71.143059 68.116882,70.069611 
	C68.490860,68.679344 68.747726,67.913651 69.004601,67.147949 
	C69.167381,67.110245 69.330162,67.072533 69.742592,67.016533 
	C70.443192,67.000603 70.894135,67.002953 71.538101,67.307846 
	C71.165314,68.714233 70.599510,69.818077 69.810272,71.042145 
	C69.399727,71.437386 69.212608,71.712402 68.766663,72.000305 
	C68.335304,72.022408 68.162788,72.031616 67.990265,72.040817 
z"/>
<path fill="#BA2D1E" opacity="1.000000" stroke="none" 
	d="
M65.928696,77.819016 
	C64.454094,78.142273 62.979485,78.465530 61.231232,78.904991 
	C62.346416,78.340965 63.735249,77.660736 65.519440,77.211388 
	C65.914795,77.442268 65.928696,77.819016 65.928696,77.819016 
z"/>
<path fill="#AE611F" opacity="1.000000" stroke="none" 
	d="
M31.903227,66.721756 
	C31.899927,66.980453 31.721033,66.992340 30.901257,67.007431 
	C29.517941,67.012276 28.775505,67.013931 28.033072,67.015579 
	C28.033047,66.553131 28.033022,66.090683 28.058006,65.281624 
	C28.485575,64.950012 28.888140,64.965019 29.592346,64.967545 
	C30.505203,65.461685 31.116417,65.968315 31.903227,66.721756 
z"/>
<path fill="#BE5717" opacity="1.000000" stroke="none" 
	d="
M61.038895,71.067024 
	C60.825832,71.328438 60.612770,71.589851 60.173450,71.975586 
	C59.439938,71.766808 58.932682,71.433723 58.425426,71.100632 
	C59.056213,70.737617 59.687000,70.374596 60.662163,70.275131 
	C61.017323,70.714813 61.028111,70.890923 61.038895,71.067024 
z"/>
<path fill="#A25D18" opacity="1.000000" stroke="none" 
	d="
M68.714272,67.227066 
	C68.747726,67.913651 68.490860,68.679344 68.117203,69.732895 
	C67.830307,70.014290 67.660202,70.007835 67.131332,69.769783 
	C66.502556,69.341301 66.232536,69.144417 65.962517,68.947533 
	C66.782990,68.400414 67.603470,67.853294 68.714272,67.227066 
z"/>
<path fill="#C95F24" opacity="1.000000" stroke="none" 
	d="
M65.668381,68.988487 
	C66.232536,69.144417 66.502556,69.341301 66.875999,69.769348 
	C66.486961,70.273514 65.994507,70.546532 65.023674,70.814194 
	C64.268875,70.609612 64.082260,70.346626 63.985458,70.019897 
	C64.448387,69.689743 64.911308,69.359596 65.668381,68.988487 
z"/>
<path fill="#9D5516" opacity="1.000000" stroke="none" 
	d="
M63.610435,70.003677 
	C64.082260,70.346626 64.268875,70.609612 64.762825,70.922546 
	C63.878487,71.051628 62.776630,71.067024 61.356834,71.074722 
	C61.028111,70.890923 61.017323,70.714813 60.994198,70.274422 
	C61.733040,70.002586 62.484222,69.995026 63.610435,70.003677 
z"/>
<path fill="#C85925" opacity="1.000000" stroke="none" 
	d="
M41.706680,73.020538 
	C40.525558,73.363380 39.123367,73.694443 37.331348,74.048157 
	C36.941517,74.070816 36.962067,74.043793 36.977554,73.789169 
	C37.004269,73.365021 37.015491,73.195511 37.026718,73.025993 
	C38.097008,73.018875 39.167294,73.011757 40.640373,72.998695 
	C41.043159,72.992744 41.485619,73.008751 41.706680,73.020538 
z"/>
<path fill="#A87011" opacity="1.000000" stroke="none" 
	d="
M67.983253,72.266075 
	C68.162788,72.031616 68.335304,72.022408 69.107635,72.011749 
	C70.163269,72.036003 70.619087,72.061699 71.074913,72.087402 
	C70.533806,72.641045 69.992691,73.194695 69.076744,73.626129 
	C68.505928,73.246239 68.257011,73.058792 67.955154,72.941574 
	C67.955154,72.941574 67.976242,72.491333 67.983253,72.266075 
z"/>
<path fill="#DB5D22" opacity="1.000000" stroke="none" 
	d="
M58.636482,73.987587 
	C58.178955,74.335739 57.409256,74.677849 56.298401,75.031105 
	C56.746269,74.688683 57.535290,74.335114 58.636482,73.987587 
z"/>
<path fill="#CE6126" opacity="1.000000" stroke="none" 
	d="
M47.723625,74.709702 
	C46.769482,74.843864 45.607174,74.692467 44.222687,74.263672 
	C45.172157,74.132233 46.343811,74.278183 47.723625,74.709702 
z"/>
<path fill="#CF6B5B" opacity="1.000000" stroke="none" 
	d="
M66.052628,78.045105 
	C65.928696,77.819016 65.914795,77.442268 65.908142,77.254272 
	C66.493286,77.194725 67.085091,77.323174 67.869827,77.691666 
	C67.434021,78.044884 66.805290,78.158043 66.052628,78.045105 
z"/>
<path fill="#DD5F2E" opacity="1.000000" stroke="none" 
	d="
M71.282928,72.061386 
	C70.619087,72.061699 70.163269,72.036003 69.366470,71.998856 
	C69.212608,71.712402 69.399727,71.437386 70.134369,71.066978 
	C71.115334,70.989616 71.548790,71.007637 71.982239,71.025658 
	C71.982239,71.025658 71.962097,71.516418 71.935608,71.760803 
	C71.909119,72.005196 71.490944,72.035370 71.282928,72.061386 
z"/>
<path fill="#9C530E" opacity="1.000000" stroke="none" 
	d="
M36.000748,69.682114 
	C35.392967,69.479584 34.796947,69.004028 34.074104,68.263962 
	C34.528709,68.134300 35.110138,68.269142 35.885933,68.635376 
	C36.057701,69.047546 36.035103,69.228317 36.000748,69.682114 
z"/>
<path fill="#BB9019" opacity="1.000000" stroke="none" 
	d="
M76.224792,65.986603 
	C75.987610,65.266846 76.015472,64.552513 76.076523,63.485062 
	C76.405914,63.868591 76.702103,64.605232 77.009171,65.664902 
	C76.843300,65.989304 76.666573,65.990662 76.224792,65.986603 
z"/>
<path fill="#AE7A15" opacity="1.000000" stroke="none" 
	d="
M74.216919,71.821228 
	C74.140305,71.425354 74.318741,70.878181 74.744095,70.172607 
	C74.818001,70.566109 74.644989,71.118019 74.216919,71.821228 
z"/>
<path fill="#B95D1F" opacity="1.000000" stroke="none" 
	d="
M67.716957,72.960411 
	C68.257011,73.058792 68.505928,73.246239 68.796349,73.717430 
	C68.483269,73.966904 68.075752,74.002876 67.361710,74.058426 
	C67.042442,73.900238 67.029686,73.722488 67.009415,73.277626 
	C67.001915,73.010521 67.478760,72.979248 67.716957,72.960411 
z"/>
<path fill="#AA6216" opacity="1.000000" stroke="none" 
	d="
M37.012306,72.766617 
	C37.015491,73.195511 37.004269,73.365021 36.970383,73.788696 
	C35.798111,73.869354 34.648495,73.695854 33.302383,73.231689 
	C34.165176,72.625534 35.224457,72.310028 36.622139,71.991791 
	C36.972992,72.161789 36.985443,72.334518 37.012306,72.766617 
z"/>
<path fill="#AB6219" opacity="1.000000" stroke="none" 
	d="
M30.965034,69.001350 
	C30.972841,69.756699 30.980648,70.512039 30.990997,71.645706 
	C30.339891,71.229065 29.686245,70.434105 29.342319,69.318901 
	C30.089705,68.999550 30.527369,69.000450 30.965034,69.001350 
z"/>
<path fill="#9E6110" opacity="1.000000" stroke="none" 
	d="
M30.977507,68.670227 
	C30.527369,69.000450 30.089705,68.999550 29.323204,68.995331 
	C28.726912,68.509727 28.459454,68.027458 28.112534,67.280380 
	C28.775505,67.013931 29.517941,67.012276 30.632372,67.012642 
	C30.999573,67.456139 30.994776,67.897621 30.977507,68.670227 
z"/>
<path fill="#CF0D19" opacity="1.000000" stroke="none" 
	d="
M29.039021,53.402920 
	C29.073580,55.103176 28.959892,56.544163 28.881321,57.540028 
	C26.851236,58.479515 25.118364,59.281456 22.999411,60.262066 
	C22.692806,58.891140 22.354790,57.379757 22.016132,55.505005 
	C22.178398,55.094963 22.341305,55.048286 22.745636,54.922623 
	C24.954964,54.276966 26.922867,53.710308 29.039021,53.402920 
z"/>
<path fill="#AE7A15" opacity="1.000000" stroke="none" 
	d="
M72.020096,70.701752 
	C71.548790,71.007637 71.115334,70.989616 70.357788,70.946762 
	C70.599510,69.818077 71.165314,68.714233 71.875687,67.324402 
	C72.032822,68.151566 72.045387,69.264709 72.020096,70.701752 
z"/>
<path fill="#D65C27" opacity="1.000000" stroke="none" 
	d="
M65.586731,72.997635 
	C64.794388,73.182365 63.604950,73.359924 62.213398,73.271149 
	C63.070732,73.000038 64.130180,72.995255 65.586731,72.997635 
z"/>
</svg>